<?xml version="1.0" encoding="UTF-8"?> <svg xmlns="http://www.w3.org/2000/svg" id="74fd59f8-a4ab-4af5-ae74-fd1b7a52e8d8" data-name="Layer 1" width="25" height="25" viewBox="0 0 25 25"><defs><style>.\31 253e74a-0b97-4d14-81c9-c4dfcfe40c44{fill:blue;}</style></defs><title>infoicon-blue</title><path class="1253e74a-0b97-4d14-81c9-c4dfcfe40c44" d="M24.5,12.5073a11.55,11.55,0,0,1-3.5018,8.4917A11.5847,11.5847,0,0,1,12.5,24.4927,11.5847,11.5847,0,0,1,4.0018,20.999,11.55,11.55,0,0,1,.5,12.5073,11.5711,11.5711,0,0,1,4.0018,4.0092,11.5711,11.5711,0,0,1,12.5.5073a11.5711,11.5711,0,0,1,8.4982,3.5018A11.5711,11.5711,0,0,1,24.5,12.5073Zm-1.9634,0a9.7049,9.7049,0,0,0-2.9239-7.1209A9.6671,9.6671,0,0,0,12.5,2.456a9.694,9.694,0,0,0-7.1209,2.93,9.694,9.694,0,0,0-2.93,7.1209,9.6724,9.6724,0,0,0,2.93,7.1144A9.7077,9.7077,0,0,0,12.5,22.544a9.6807,9.6807,0,0,0,7.1127-2.9223A9.6834,9.6834,0,0,0,22.5366,12.5073ZM14.9615,6.3242a2.1177,2.1177,0,0,1-.7326,1.641,2.5965,2.5965,0,0,1-3.4579,0,2.1177,2.1177,0,0,1-.7326-1.641,2.1177,2.1177,0,0,1,.7326-1.641,2.5965,2.5965,0,0,1,3.4579,0A2.1177,2.1177,0,0,1,14.9615,6.3242Zm-.4542,15.15H10.478V10.0458h4.0293Z"></path></svg> 