<svg width="38" height="38" viewBox="0 0 38 38" fill="none" xmlns="http://www.w3.org/2000/svg">
<rect width="38" height="38" rx="4" fill="none"/>
<g clip-path="url(#clip0_6015_33974)">
<path d="M21.0009 33V24.6557C17.8777 24.6557 15.3443 22.1223 15.3443 18.9991C15.3443 15.8759 17.8777 13.3426 21.0009 13.3426V5C13.2675 5 7 11.2675 7 19.0009C7 26.7343 13.2675 33.0018 21.0009 33.0018V33Z" fill="#E3B50F"/>
<path d="M20.9609 5L20.9785 13.3443H21.6983C26.2927 13.3443 30.0163 9.61371 30.0058 5.01931L20.9609 5V5Z" fill="#FFD339"/>
<path d="M20.9609 24.6558L20.9785 33.0001H30.0233V32.9492C30.0145 28.3741 26.3067 24.6681 21.7316 24.6575H20.9609V24.6558Z" fill="#FFD339"/>
</g>
<defs>
<clipPath id="clip0_6015_33974">
<rect width="23.0229" height="28" fill="white" transform="translate(7 5)"/>
</clipPath>
</defs>
</svg>
