<?xml version="1.0" encoding="UTF-8"?> <svg xmlns="http://www.w3.org/2000/svg" id="0d690ca2-986b-496c-b85b-5b54c760bdb8" data-name="Layer 1" width="150" height="150" viewBox="0 0 150 150"><defs><style>.\33 7fc9a4f-6571-4dd0-8700-a9bd3dc98d7f{fill:#228b22;}</style></defs><title>offer-icon2</title><path class="37fc9a4f-6571-4dd0-8700-a9bd3dc98d7f" d="M121.6,92.7S138.7,134,96.1,120c0,0-16.6,47.3-41.6.1,0,0-46.8,17.3-25.9-26,0,0-38.9-21.7,0-40.9,0,0-21.6-44.1,25.9-26.6,0,0,20.8-39.4,36.8,0,0,0,44.4-23.2,31.6,24.9C122.9,51.4,159.4,71,121.6,92.7Z"></path><path class="37fc9a4f-6571-4dd0-8700-a9bd3dc98d7f" d="M76.37,142.3623c-7.4946.001-15.0547-6.9414-22.4961-20.6572-4.5757,1.5313-22.0723,6.6982-29.0942-1.0293-4.4067-4.85-3.6914-13.6123,2.1235-26.0576C22.9751,92.2061,9.7227,83.2236,10.0054,71.9844c.1812-7.1924,5.8564-13.7095,16.874-19.3838-1.9736-4.439-8.1616-20.0308-1.4072-27.5156,4.6392-5.1406,14.2-5.1724,28.4258-.0972C56.1553,21.0674,64.86,7.2964,75.2188,7.793c6.4277.3218,12.0605,6.0444,16.7539,17.0156,4.6729-2.21,20.7275-8.9761,29.3027-2.1172,5.6934,4.5537,6.751,14.0239,3.1494,28.1558,3.7334,1.9673,11.96,8.22,14.6436,15.6318,3.4434,9.5083-1.8877,18.5171-15.8437,26.7905,1.543,4.1709,6.3975,19.2021-.5957,26.74-4.6113,4.9727-13.27,5.5156-25.7441,1.6182-1.7783,4.4922-8.65,19.8789-19.6074,20.7C76.9756,142.3506,76.6719,142.3623,76.37,142.3623Zm-21.249-23.89.5366,1.0137c7.38,13.9346,14.6152,20.7285,21.42,20.2285,10.8613-.81,17.7178-19.9561,17.7852-20.1494l.4258-1.2109,1.22.4c12.0557,3.9629,20.1953,3.7852,24.1963-.5244,6.8584-7.3887-.2441-24.8535-.3164-25.0293l-.4395-1.0635.998-.5742c11.1934-6.4258,16.7373-13.1895,16.4775-20.1045-.3623-9.65-11.7686-16.8657-14.4775-18.44l-2.1709,1.3682.8574-3.2241c3.6143-13.5815,2.9434-22.4722-1.9932-26.4238-8.5605-6.85-27.543,2.9233-27.7344,3.0225l-1.2773.6665-.543-1.335C85.7031,16.3018,80.6572,10.689,75.0879,10.41,64.9341,9.9214,55.75,27.0386,55.6587,27.2119l-.5356,1.0142L54.0469,27.83c-13.51-4.978-22.7178-5.3193-26.6274-.99C20.8442,34.1206,29.687,52.44,29.7769,52.624l.5737,1.1729-1.17.5781C18.356,59.7178,12.7861,65.6646,12.625,72.05c-.2856,11.3452,16.4443,20.811,16.6133,20.9048l1.0786.6016L29.78,94.6689c-5.7759,11.9668-6.8057,20.123-3.061,24.2441,6.7642,7.4453,27.1216.0332,27.3267-.042Z"></path></svg> 