<?xml version="1.0" encoding="UTF-8"?> <svg xmlns="http://www.w3.org/2000/svg" id="d74cfa80-3301-4a15-894b-20d26debfc3b" data-name="Layer 1" width="150" height="150" viewBox="0 0 150 150"><defs><style>.\35 d05247e-0205-4797-89bb-bddb6205c5fc{fill:#228b22;}</style></defs><title>offer-icon1</title><path class="5d05247e-0205-4797-89bb-bddb6205c5fc" d="M76.6289,142.417a14.9315,14.9315,0,0,1-7.5952-2.3887c-6.7344-4.1963-11.0293-11.0723-15.103-18.4287-1.0957.2852-3.0088.8066-4.52,1.2178-2.8936.7881-4.6841,1.2734-5.1538,1.3682a34.1953,34.1953,0,0,1-11.3726.3066c-3.6187-.6582-7.5327-1.8271-9.2715-5.5352a19.9132,19.9132,0,0,1-1.1011-12,49.9443,49.9443,0,0,1,4.5889-12.3828c-4.64-2.9531-8.7373-5.8252-11.9287-9.8613-4.0088-4.9521-5.6367-11.0591-4.3447-16.3247,1.9126-7.6514,9.1914-12.18,16.1978-15.76A40.9524,40.9524,0,0,1,22.69,33.1621c.1064-2.4536.4336-5.2393,2.0547-7.4395,1.7051-2.3066,4.6011-3.8,8.3755-4.32,7.0713-.9692,13.9673,1.083,20.9761,3.5879,2.2739-4.0732,4.8931-8.5225,8.7427-11.8779C67.6411,8.9258,73.4019,7.252,78.2607,8.64c7.7041,2.0327,11.4912,10.6445,13.6182,16.2373a37.2845,37.2845,0,0,1,20.6094-4.7847c2.7813.2139,5.6836.6431,8.15,2.3247,4.8457,3.1152,6.2656,9.5161,5.9688,14.4609a58.1211,58.1211,0,0,1-1.27,8.1777c-.3916,1.9092-.7939,3.8755-1.0391,5.8311a37.67,37.67,0,0,1,11.0293,9.001,19.5967,19.5967,0,0,1,4.3691,14.6968c-1.3018,8.41-8.6523,13.96-16.5967,18.6533,1.7236,4.61,3.4121,9.377,3.5088,14.4365.1221,6.2754-2.5312,11.8477-6.9238,14.542-5.832,3.5654-12.584,1.8438-19.1123.1777-1.1787-.3008-2.3877-.6094-3.5713-.8789-2.4355,5.96-5.999,13.0684-12.01,17.6279a13.9879,13.9879,0,0,1-7.9443,3.2656C76.9082,142.4141,76.7686,142.417,76.6289,142.417Zm-21.87-23.6025a.8769.8769,0,0,1,.6357.2432l.22.168.1338.2432c4.0454,7.3652,8.2095,14.3086,14.6445,18.3193a12.1206,12.1206,0,0,0,6.5562,2.002,11.3552,11.3552,0,0,0,6.457-2.7324c5.8486-4.4365,9.2588-11.7051,11.5762-17.541l.4063-1.0234,1.0781.2236c1.5723.3271,3.19.74,4.7539,1.1387,6.2793,1.6025,12.208,3.1152,17.0957.127,4.3066-2.6426,5.7549-8.0635,5.6738-12.2568-.0947-4.9062-1.8994-9.7187-3.6445-14.3721l-.1562-.416V92.7a1.4126,1.4126,0,0,1,.876-1.3057c7.6533-4.457,14.8691-9.63,16.04-17.1953a16.97,16.97,0,0,0-3.834-12.687c-2.4912-3.1553-6.0918-6.0234-11.01-8.7681l-.751-.4189.0859-.8555a68.5961,68.5961,0,0,1,1.1738-6.9395,55.3328,55.3328,0,0,0,1.2217-7.8091c.252-4.2046-.877-9.5962-4.8008-12.1191a13.9822,13.9822,0,0,0-6.8916-1.896,34.7774,34.7774,0,0,0-20.41,5.208l-1.36.8423-.5576-1.5c-2.5537-6.874-5.8291-14.3535-12.4053-16.0889-4.729-1.3535-9.8159,1.14-13.0054,3.9209-3.8125,3.3232-6.4175,8.0117-8.7153,12.1484l-.5425.9761-1.0493-.38c-7.05-2.5542-13.9448-4.7705-20.7764-3.8335-2.1323.2939-5.0137,1.1021-6.624,3.28-1.2026,1.6323-1.4556,3.938-1.5444,5.9785a38.36,38.36,0,0,0,4.6431,19.3193l.644,1.19-1.21.605c-6.8306,3.4155-14.2646,7.6455-16.0146,14.646-1.0967,4.47.3413,9.7271,3.8477,14.0581,3.1709,4.01,7.437,6.8623,12.28,9.915l1.0039.6328-.5308,1.0615a51,51,0,0,0-4.8862,12.7666,17.5819,17.5819,0,0,0,.9063,10.4033c1.2241,2.6113,4.2529,3.4932,7.3428,4.0557a31.6874,31.6874,0,0,0,10.45-.3027c.374-.0762,2.7983-.7363,4.9375-1.3193C52.7681,119.1865,54.1338,118.8145,54.7593,118.8145Z"></path></svg> 