<svg width="53" height="57" viewBox="0 0 53 57" fill="none" xmlns="http://www.w3.org/2000/svg">
<g id="Group 1171275038">
<path id="Vector" d="M27.1233 56.5C26.0171 56.4607 24.9422 56.1164 24.0131 55.5036C21.2554 53.7533 19.4967 50.8852 17.8285 47.8167C17.3799 47.9357 16.5965 48.1532 15.9776 48.3247C14.7927 48.6534 14.0595 48.8559 13.8672 48.8954C12.3328 49.2026 10.7587 49.2458 9.21023 49.0233C7.7284 48.7487 6.12566 48.2612 5.41363 46.7145C4.75944 45.1335 4.60193 43.3849 4.96274 41.7091C5.36191 39.9103 5.99381 38.1734 6.84186 36.544C4.94182 35.3123 3.26401 34.1143 1.95716 32.4307C0.31559 30.3652 -0.351021 27.8178 0.178042 25.6215C0.961235 22.43 3.94184 20.541 6.8109 19.0477C5.57137 16.5316 4.96158 13.7423 5.03575 10.9281C5.07932 9.9047 5.21331 8.74274 5.87714 7.825C6.57536 6.86289 7.76125 6.23997 9.30683 6.02307C12.2025 5.6188 15.0263 6.4748 17.8964 7.51963C18.8275 5.82064 19.9 3.96477 21.4764 2.56518C23.4428 0.818805 25.8018 0.120637 27.7915 0.699593C30.9462 1.54746 32.497 5.13958 33.368 7.47242C35.9329 5.99103 38.8641 5.29786 41.8074 5.47665C42.9463 5.56587 44.1348 5.74489 45.1447 6.44631C47.129 7.74571 47.7104 10.4156 47.5889 12.4782C47.4953 13.6263 47.3215 14.7662 47.0688 15.8892C46.9085 16.6856 46.7437 17.5057 46.6433 18.3215C48.3694 19.2692 49.9022 20.5434 51.1597 22.0759C51.8472 22.9228 52.3599 23.9021 52.6673 24.9554C52.9747 26.0087 53.0705 27.1143 52.9488 28.2062C52.4158 31.7141 49.4058 34.0291 46.1526 35.9867C46.8584 37.9096 47.5499 39.898 47.5895 42.0084C47.6395 44.626 46.553 46.9503 44.7542 48.0741C42.3661 49.5613 39.6012 48.8432 36.9279 48.1482C36.4452 48.0228 35.9502 47.894 35.4655 47.7816C34.4682 50.2676 33.009 53.2326 30.5475 55.1345C29.6302 55.9248 28.4922 56.4013 27.2944 56.4966C27.2376 56.4988 27.1805 56.5 27.1233 56.5ZM18.1677 46.655C18.2155 46.6534 18.2632 46.6616 18.3079 46.679C18.3526 46.6964 18.3934 46.7228 18.428 46.7565L18.5181 46.8266L18.5729 46.928C20.2294 50.0001 21.9346 52.8963 24.5697 54.5693C25.367 55.105 26.2992 55.3949 27.2544 55.4043C28.2317 55.318 29.1572 54.9191 29.8985 54.2646C32.2934 52.4141 33.6899 49.3822 34.6388 46.948L34.8052 46.5211L35.2467 46.6144C35.8905 46.7508 36.5529 46.923 37.1933 47.0893C39.7647 47.7578 42.1924 48.3887 44.1939 47.1423C45.9574 46.04 46.5505 43.7789 46.5173 42.0298C46.4785 39.9834 45.7395 37.976 45.0249 36.035L44.9609 35.8615V35.7623C44.961 35.6455 44.9951 35.5314 45.059 35.4344C45.1229 35.3375 45.2136 35.262 45.3196 35.2177C48.4536 33.3586 51.4084 31.2008 51.8879 28.0452C51.9881 27.101 51.9007 26.1458 51.631 25.2367C51.3613 24.3275 50.9147 23.483 50.3179 22.7533C49.2977 21.4372 47.8233 20.2409 45.8094 19.096L45.5018 18.9213L45.537 18.5644C45.6485 17.5918 45.8089 16.6257 46.0177 15.6699C46.2605 14.5976 46.4276 13.5091 46.518 12.4126C46.6211 10.6588 46.1588 8.40984 44.5521 7.3575C43.6945 6.84929 42.7221 6.57677 41.73 6.56665C38.7906 6.3933 35.8708 7.15223 33.3723 8.73899L32.8154 9.09032L32.5871 8.46465C31.5413 5.5974 30.2001 2.47759 27.5072 1.75373C25.5707 1.18916 23.4877 2.22924 22.1816 3.38919C20.6204 4.77535 19.5537 6.73099 18.6128 8.45647L18.3906 8.86362L17.9609 8.70512C15.074 7.63972 12.2507 6.71527 9.45318 7.10611C8.58002 7.2287 7.40012 7.56581 6.74071 8.47424C6.24826 9.1551 6.14466 10.1168 6.10829 10.968C6.03626 13.7776 6.69203 16.5569 8.0096 19.0263L8.27331 19.5227L7.77783 19.7751C4.98076 21.1997 1.9366 22.9641 1.21999 25.8841C0.770903 27.7486 1.35975 29.9414 2.79559 31.748C4.09405 33.4206 5.84098 34.6103 7.82414 35.8837L8.23523 36.1476L8.01787 36.5904C7.11935 38.2659 6.44635 40.0571 6.01702 41.9155C5.70643 43.3669 5.83585 44.8801 6.38814 46.2549C6.8894 47.3441 8.12966 47.712 9.39495 47.9466C10.8184 48.1461 12.2644 48.1035 13.6741 47.8203C13.8273 47.7886 14.82 47.5132 15.696 47.27C17.3525 46.8102 17.9115 46.655 18.1677 46.655Z" fill="#627413"/>
</g>
</svg>
